<svg width="63" height="63" viewBox="0 0 63 63" fill="none" xmlns="http://www.w3.org/2000/svg">
<g clip-path="url(#clip0_43_539)">
<mask id="mask0_43_539" style="mask-type:luminance" maskUnits="userSpaceOnUse" x="0" y="0" width="63" height="63">
<path d="M0 0H63V63H0V0Z" fill="white"/>
<path fill-rule="evenodd" clip-rule="evenodd" d="M24.3714 33.5741C24.4216 33.2214 24.3412 32.8624 24.1453 32.5647C23.9494 32.2671 23.6515 32.0513 23.3076 31.9579C23.144 31.918 22.9738 31.9133 22.8083 31.9442C22.6427 31.9751 22.4856 32.0409 22.3474 32.1371C22.2092 32.2334 22.0931 32.3579 22.0067 32.5025C21.9204 32.647 21.8658 32.8083 21.8465 32.9756V32.9829L21.8441 32.9926L21.8392 33.0168C21.8242 33.1294 21.8137 33.2426 21.8077 33.3561C21.7884 33.6416 21.7852 33.928 21.798 34.2138C21.8295 34.8996 21.9628 35.8639 22.4184 36.8259C22.8715 37.783 23.5257 38.493 24.0297 38.9485C24.3242 39.2139 24.6394 39.4554 24.9723 39.6706L24.9941 39.6827L25.0014 39.6876L25.0062 39.69L25.5732 38.5221L25.0086 39.6924C25.1504 39.783 25.3098 39.8424 25.4763 39.8666C25.6428 39.8909 25.8125 39.8795 25.9743 39.8333C26.136 39.787 26.2861 39.7069 26.4146 39.5982C26.543 39.4895 26.6469 39.3548 26.7193 39.203C26.865 38.877 26.8863 38.5089 26.7792 38.1682C26.6721 37.8276 26.4439 37.538 26.1378 37.3541H26.145L26.1257 37.3444C25.9435 37.222 25.7702 37.0868 25.6071 36.9398C25.2262 36.6065 24.9135 36.2024 24.6864 35.7501C24.4799 35.2838 24.3664 34.7817 24.352 34.272C24.3419 34.0481 24.3476 33.8239 24.3689 33.6008L24.3714 33.5741Z" fill="black"/>
<path fill-rule="evenodd" clip-rule="evenodd" d="M39.5592 11.2456C40.8701 11.8998 40.2934 13.0653 39.6852 14.2914C39.0188 15.6338 38.3161 17.0489 40.0365 17.9357C43.0741 19.5038 45.5786 21.9374 47.2331 24.9288C48.8876 27.9202 49.6178 31.335 49.3316 34.7415C49.0453 38.1479 47.7552 41.393 45.6247 44.0663C43.4941 46.7396 40.6186 48.721 37.3618 49.7601C34.1051 50.7991 30.6134 50.8491 27.3283 49.9036C24.0432 48.9582 21.1122 47.0598 18.906 44.4485C16.6998 41.8373 15.3175 38.6305 14.9338 35.2336C14.5502 31.8367 15.1825 28.4024 16.7508 25.3649C19.3434 20.3418 26.6902 13.1065 38.3573 11.4007C38.7523 11.3425 39.1545 11.2916 39.5592 11.2456ZM37.1046 14.0782C27.1991 16.0578 21.0493 22.3263 18.9049 26.4795C17.5565 29.0911 17.0128 32.044 17.3426 34.9646C17.6724 37.8852 18.8609 40.6425 20.7578 42.8876C22.6546 45.1328 25.1746 46.7651 27.9992 47.578C30.8237 48.391 33.8258 48.3481 36.626 47.4548C39.4262 46.5615 41.8985 44.858 43.7305 42.5595C45.5625 40.2611 46.6717 37.4711 46.918 34.5422C47.1642 31.6133 46.5365 28.6772 45.114 26.1052C43.6916 23.5331 41.5384 21.4406 38.9268 20.0923C38.2028 19.7363 37.5872 19.1934 37.1434 18.5197C36.7249 17.8587 36.5154 17.0869 36.5424 16.305C36.5643 15.469 36.8429 14.6743 37.1046 14.0782Z" fill="black"/>
</mask>
<g mask="url(#mask0_43_539)">
<path id='pump-icon' d="M31.5 63C48.897 63 63 48.897 63 31.5C63 14.103 48.897 0 31.5 0C14.103 0 0 14.103 0 31.5C0 48.897 14.103 63 31.5 63Z" fill="#1E5D32"/>
</g>
</g>
<defs>
<clipPath id="clip0_43_539">
<rect width="63" height="63" fill="white"/>
</clipPath>
</defs>
</svg>
